<mxfile host="app.diagrams.net" modified="2023-08-01T06:12:43.508Z" agent="Mozilla/5.0 (Windows NT 10.0; Win64; x64) AppleWebKit/537.36 (KHTML, like Gecko) Chrome/114.0.0.0 Safari/537.36" etag="HQMwy91nMqPx5yeaAQnT" version="21.6.6" type="github">
  <diagram name="下单" id="uSUashgibDiveNM5QsGZ">
    <mxGraphModel dx="1111" dy="796" grid="1" gridSize="10" guides="1" tooltips="1" connect="1" arrows="1" fold="1" page="1" pageScale="1" pageWidth="827" pageHeight="1169" math="0" shadow="0">
      <root>
        <mxCell id="0" />
        <mxCell id="1" parent="0" />
        <mxCell id="nvD8OTTnD4aM3A5wy0fR-3" value="Actor" style="shape=umlActor;verticalLabelPosition=bottom;verticalAlign=top;html=1;outlineConnect=0;" vertex="1" parent="1">
          <mxGeometry x="70" y="50" width="30" height="60" as="geometry" />
        </mxCell>
        <mxCell id="nvD8OTTnD4aM3A5wy0fR-7" value="" style="endArrow=none;html=1;rounded=0;" edge="1" parent="1" source="nvD8OTTnD4aM3A5wy0fR-6">
          <mxGeometry width="50" height="50" relative="1" as="geometry">
            <mxPoint x="80" y="640" as="sourcePoint" />
            <mxPoint x="80" y="200" as="targetPoint" />
          </mxGeometry>
        </mxCell>
        <mxCell id="nvD8OTTnD4aM3A5wy0fR-8" value="" style="endArrow=none;html=1;rounded=0;" edge="1" parent="1" target="nvD8OTTnD4aM3A5wy0fR-6">
          <mxGeometry width="50" height="50" relative="1" as="geometry">
            <mxPoint x="80" y="750" as="sourcePoint" />
            <mxPoint x="80" y="200" as="targetPoint" />
          </mxGeometry>
        </mxCell>
        <mxCell id="nvD8OTTnD4aM3A5wy0fR-6" value="" style="rounded=0;whiteSpace=wrap;html=1;direction=south;" vertex="1" parent="1">
          <mxGeometry x="70" y="210" width="20" height="510" as="geometry" />
        </mxCell>
        <mxCell id="nvD8OTTnD4aM3A5wy0fR-11" value="" style="endArrow=classic;html=1;rounded=0;exitX=0.071;exitY=0;exitDx=0;exitDy=0;exitPerimeter=0;" edge="1" parent="1" source="nvD8OTTnD4aM3A5wy0fR-6">
          <mxGeometry width="50" height="50" relative="1" as="geometry">
            <mxPoint x="92" y="246" as="sourcePoint" />
            <mxPoint x="300" y="240" as="targetPoint" />
          </mxGeometry>
        </mxCell>
        <mxCell id="nvD8OTTnD4aM3A5wy0fR-12" value="" style="endArrow=none;html=1;rounded=0;" edge="1" parent="1">
          <mxGeometry width="50" height="50" relative="1" as="geometry">
            <mxPoint x="320" y="750" as="sourcePoint" />
            <mxPoint x="320" y="200" as="targetPoint" />
          </mxGeometry>
        </mxCell>
        <mxCell id="nvD8OTTnD4aM3A5wy0fR-13" value="" style="rounded=0;whiteSpace=wrap;html=1;direction=south;" vertex="1" parent="1">
          <mxGeometry x="310" y="220" width="20" height="500" as="geometry" />
        </mxCell>
        <mxCell id="nvD8OTTnD4aM3A5wy0fR-14" value="获取酒店信息 getById" style="text;html=1;strokeColor=none;fillColor=none;align=center;verticalAlign=middle;whiteSpace=wrap;rounded=0;" vertex="1" parent="1">
          <mxGeometry x="140" y="210" width="130" height="30" as="geometry" />
        </mxCell>
        <mxCell id="nvD8OTTnD4aM3A5wy0fR-17" value="" style="endArrow=classic;html=1;rounded=0;exitX=0.071;exitY=0;exitDx=0;exitDy=0;exitPerimeter=0;" edge="1" parent="1">
          <mxGeometry width="50" height="50" relative="1" as="geometry">
            <mxPoint x="90" y="290" as="sourcePoint" />
            <mxPoint x="300" y="290" as="targetPoint" />
          </mxGeometry>
        </mxCell>
        <mxCell id="nvD8OTTnD4aM3A5wy0fR-19" value="获取酒店所有产品西信息（房间）" style="text;html=1;strokeColor=none;fillColor=none;align=center;verticalAlign=middle;whiteSpace=wrap;rounded=0;" vertex="1" parent="1">
          <mxGeometry x="110" y="260" width="170" height="30" as="geometry" />
        </mxCell>
        <mxCell id="nvD8OTTnD4aM3A5wy0fR-20" value="listAllProducts" style="text;html=1;strokeColor=none;fillColor=none;align=center;verticalAlign=middle;whiteSpace=wrap;rounded=0;" vertex="1" parent="1">
          <mxGeometry x="120" y="290" width="130" height="30" as="geometry" />
        </mxCell>
        <mxCell id="nvD8OTTnD4aM3A5wy0fR-22" value="" style="endArrow=classic;html=1;rounded=0;exitX=0.071;exitY=0;exitDx=0;exitDy=0;exitPerimeter=0;" edge="1" parent="1">
          <mxGeometry width="50" height="50" relative="1" as="geometry">
            <mxPoint x="90" y="360" as="sourcePoint" />
            <mxPoint x="300" y="360" as="targetPoint" />
          </mxGeometry>
        </mxCell>
        <mxCell id="nvD8OTTnD4aM3A5wy0fR-23" value="预定" style="text;html=1;strokeColor=none;fillColor=none;align=center;verticalAlign=middle;whiteSpace=wrap;rounded=0;" vertex="1" parent="1">
          <mxGeometry x="10" y="350" width="60" height="30" as="geometry" />
        </mxCell>
        <mxCell id="nvD8OTTnD4aM3A5wy0fR-24" value="prebooking&amp;nbsp;" style="text;html=1;strokeColor=none;fillColor=none;align=center;verticalAlign=middle;whiteSpace=wrap;rounded=0;" vertex="1" parent="1">
          <mxGeometry x="140" y="330" width="130" height="30" as="geometry" />
        </mxCell>
        <mxCell id="nvD8OTTnD4aM3A5wy0fR-26" value="酒店信息" style="text;html=1;strokeColor=none;fillColor=none;align=center;verticalAlign=middle;whiteSpace=wrap;rounded=0;" vertex="1" parent="1">
          <mxGeometry x="10" y="250" width="60" height="30" as="geometry" />
        </mxCell>
        <mxCell id="nvD8OTTnD4aM3A5wy0fR-28" value="" style="endArrow=classic;html=1;rounded=0;exitX=0.071;exitY=0;exitDx=0;exitDy=0;exitPerimeter=0;" edge="1" parent="1">
          <mxGeometry width="50" height="50" relative="1" as="geometry">
            <mxPoint x="90" y="390" as="sourcePoint" />
            <mxPoint x="300" y="390" as="targetPoint" />
          </mxGeometry>
        </mxCell>
        <mxCell id="nvD8OTTnD4aM3A5wy0fR-29" value="" style="endArrow=classic;html=1;rounded=0;exitX=0.071;exitY=0;exitDx=0;exitDy=0;exitPerimeter=0;" edge="1" parent="1">
          <mxGeometry width="50" height="50" relative="1" as="geometry">
            <mxPoint x="90" y="420" as="sourcePoint" />
            <mxPoint x="300" y="420" as="targetPoint" />
          </mxGeometry>
        </mxCell>
        <mxCell id="nvD8OTTnD4aM3A5wy0fR-32" value="getOptiomalCopon" style="text;html=1;strokeColor=none;fillColor=none;align=center;verticalAlign=middle;whiteSpace=wrap;rounded=0;" vertex="1" parent="1">
          <mxGeometry x="145" y="370" width="105" height="30" as="geometry" />
        </mxCell>
        <mxCell id="nvD8OTTnD4aM3A5wy0fR-33" value="calculatePrice" style="text;html=1;strokeColor=none;fillColor=none;align=center;verticalAlign=middle;whiteSpace=wrap;rounded=0;" vertex="1" parent="1">
          <mxGeometry x="145" y="400" width="105" height="30" as="geometry" />
        </mxCell>
        <mxCell id="nvD8OTTnD4aM3A5wy0fR-34" value="提交订单" style="text;html=1;strokeColor=none;fillColor=none;align=center;verticalAlign=middle;whiteSpace=wrap;rounded=0;" vertex="1" parent="1">
          <mxGeometry x="10" y="500" width="60" height="30" as="geometry" />
        </mxCell>
        <mxCell id="nvD8OTTnD4aM3A5wy0fR-35" value="" style="endArrow=classic;html=1;rounded=0;exitX=0.071;exitY=0;exitDx=0;exitDy=0;exitPerimeter=0;" edge="1" parent="1">
          <mxGeometry width="50" height="50" relative="1" as="geometry">
            <mxPoint x="92.5" y="540" as="sourcePoint" />
            <mxPoint x="302.5" y="540" as="targetPoint" />
          </mxGeometry>
        </mxCell>
        <mxCell id="nvD8OTTnD4aM3A5wy0fR-36" value="" style="endArrow=classic;html=1;rounded=0;exitX=0.071;exitY=0;exitDx=0;exitDy=0;exitPerimeter=0;" edge="1" parent="1">
          <mxGeometry width="50" height="50" relative="1" as="geometry">
            <mxPoint x="90" y="500" as="sourcePoint" />
            <mxPoint x="300" y="500" as="targetPoint" />
          </mxGeometry>
        </mxCell>
        <mxCell id="nvD8OTTnD4aM3A5wy0fR-37" value="" style="endArrow=classic;html=1;rounded=0;exitX=0.071;exitY=0;exitDx=0;exitDy=0;exitPerimeter=0;" edge="1" parent="1">
          <mxGeometry width="50" height="50" relative="1" as="geometry">
            <mxPoint x="92.5" y="580" as="sourcePoint" />
            <mxPoint x="302.5" y="580" as="targetPoint" />
          </mxGeometry>
        </mxCell>
        <mxCell id="nvD8OTTnD4aM3A5wy0fR-39" value="createOrder" style="text;html=1;strokeColor=none;fillColor=none;align=center;verticalAlign=middle;whiteSpace=wrap;rounded=0;" vertex="1" parent="1">
          <mxGeometry x="165" y="470" width="85" height="30" as="geometry" />
        </mxCell>
        <mxCell id="nvD8OTTnD4aM3A5wy0fR-41" value="支付成功回调接口" style="text;html=1;strokeColor=none;fillColor=none;align=center;verticalAlign=middle;whiteSpace=wrap;rounded=0;" vertex="1" parent="1">
          <mxGeometry x="165" y="520" width="60" height="30" as="geometry" />
        </mxCell>
        <mxCell id="nvD8OTTnD4aM3A5wy0fR-43" value="getOrderDetail" style="text;html=1;strokeColor=none;fillColor=none;align=center;verticalAlign=middle;whiteSpace=wrap;rounded=0;" vertex="1" parent="1">
          <mxGeometry x="152.5" y="560" width="105" height="30" as="geometry" />
        </mxCell>
        <mxCell id="nvD8OTTnD4aM3A5wy0fR-46" value="" style="endArrow=classic;html=1;rounded=0;exitX=0.071;exitY=0;exitDx=0;exitDy=0;exitPerimeter=0;" edge="1" parent="1">
          <mxGeometry width="50" height="50" relative="1" as="geometry">
            <mxPoint x="92.5" y="650" as="sourcePoint" />
            <mxPoint x="302.5" y="650" as="targetPoint" />
          </mxGeometry>
        </mxCell>
        <mxCell id="nvD8OTTnD4aM3A5wy0fR-48" value="cancelOrder" style="text;html=1;strokeColor=none;fillColor=none;align=center;verticalAlign=middle;whiteSpace=wrap;rounded=0;" vertex="1" parent="1">
          <mxGeometry x="160" y="630" width="60" height="30" as="geometry" />
        </mxCell>
        <mxCell id="nvD8OTTnD4aM3A5wy0fR-49" value="" style="endArrow=classic;html=1;rounded=0;exitX=0.071;exitY=0;exitDx=0;exitDy=0;exitPerimeter=0;" edge="1" parent="1">
          <mxGeometry width="50" height="50" relative="1" as="geometry">
            <mxPoint x="92.5" y="700" as="sourcePoint" />
            <mxPoint x="302.5" y="700" as="targetPoint" />
          </mxGeometry>
        </mxCell>
        <mxCell id="nvD8OTTnD4aM3A5wy0fR-50" value="getOrderDetail" style="text;html=1;strokeColor=none;fillColor=none;align=center;verticalAlign=middle;whiteSpace=wrap;rounded=0;" vertex="1" parent="1">
          <mxGeometry x="142.5" y="680" width="105" height="30" as="geometry" />
        </mxCell>
      </root>
    </mxGraphModel>
  </diagram>
</mxfile>
